<svg xmlns="http://www.w3.org/2000/svg" width="700" height="700" viewBox="0 0 700 700"><rect width="100%" height="100%" fill="white"/><line x1="60" y1="60" x2="60" y2="640" stroke="#D9DDE4"/><line x1="60" y1="60" x2="640" y2="60" stroke="#D9DDE4"/><line x1="110" y1="60" x2="110" y2="640" stroke="#D9DDE4"/><line x1="60" y1="110" x2="640" y2="110" stroke="#D9DDE4"/><line x1="160" y1="60" x2="160" y2="640" stroke="#D9DDE4"/><line x1="60" y1="160" x2="640" y2="160" stroke="#D9DDE4"/><line x1="210" y1="60" x2="210" y2="640" stroke="#D9DDE4"/><line x1="60" y1="210" x2="640" y2="210" stroke="#D9DDE4"/><line x1="260" y1="60" x2="260" y2="640" stroke="#D9DDE4"/><line x1="60" y1="260" x2="640" y2="260" stroke="#D9DDE4"/><line x1="310" y1="60" x2="310" y2="640" stroke="#D9DDE4"/><line x1="60" y1="310" x2="640" y2="310" stroke="#D9DDE4"/><line x1="360" y1="60" x2="360" y2="640" stroke="#D9DDE4"/><line x1="60" y1="360" x2="640" y2="360" stroke="#D9DDE4"/><line x1="410" y1="60" x2="410" y2="640" stroke="#D9DDE4"/><line x1="60" y1="410" x2="640" y2="410" stroke="#D9DDE4"/><line x1="460" y1="60" x2="460" y2="640" stroke="#D9DDE4"/><line x1="60" y1="460" x2="640" y2="460" stroke="#D9DDE4"/><line x1="510" y1="60" x2="510" y2="640" stroke="#D9DDE4"/><line x1="60" y1="510" x2="640" y2="510" stroke="#D9DDE4"/><line x1="560" y1="60" x2="560" y2="640" stroke="#D9DDE4"/><line x1="60" y1="560" x2="640" y2="560" stroke="#D9DDE4"/><line x1="610" y1="60" x2="610" y2="640" stroke="#D9DDE4"/><line x1="60" y1="610" x2="640" y2="610" stroke="#D9DDE4"/><line x1="660" y1="60" x2="660" y2="640" stroke="#D9DDE4"/><line x1="60" y1="660" x2="640" y2="660" stroke="#D9DDE4"/><line x1="60" y1="350.0" x2="640" y2="350.0" stroke="#071A3A" stroke-width="3"/><line x1="350.0" y1="60" x2="350.0" y2="640" stroke="#071A3A" stroke-width="3"/></svg>